<mxfile host="app.diagrams.net" modified="2020-09-24T06:01:46.764Z" agent="5.0 (Windows NT 6.1; WOW64) AppleWebKit/537.36 (KHTML, like Gecko) Chrome/78.0.3904.108 Safari/537.36" etag="cfEVwcVEJr2yHi8-l9yy" version="13.7.3" type="github">
  <diagram id="7KyOj3fAV2kCOO-Bveho" name="第 1 页">
    <mxGraphModel dx="1718" dy="1737" grid="1" gridSize="10" guides="1" tooltips="1" connect="1" arrows="1" fold="1" page="1" pageScale="1" pageWidth="827" pageHeight="1169" math="0" shadow="0">
      <root>
        <mxCell id="0" />
        <mxCell id="1" parent="0" />
        <mxCell id="mXDbekLg4qPnqd0OjegT-1" value="" style="whiteSpace=wrap;html=1;strokeWidth=2;" parent="1" vertex="1">
          <mxGeometry x="1230" y="100" width="940" height="1420" as="geometry" />
        </mxCell>
        <mxCell id="mXDbekLg4qPnqd0OjegT-14" value="" style="rounded=1;whiteSpace=wrap;html=1;strokeColor=#b46504;strokeWidth=2;fillColor=#fad7ac;" parent="1" vertex="1">
          <mxGeometry x="740" y="417" width="310" height="186" as="geometry" />
        </mxCell>
        <mxCell id="mXDbekLg4qPnqd0OjegT-13" value="" style="rounded=1;whiteSpace=wrap;html=1;strokeColor=#b46504;strokeWidth=2;fillColor=#fad7ac;" parent="1" vertex="1">
          <mxGeometry x="376" y="413" width="318" height="320" as="geometry" />
        </mxCell>
        <mxCell id="mXDbekLg4qPnqd0OjegT-12" value="" style="rounded=1;whiteSpace=wrap;html=1;strokeColor=#b46504;strokeWidth=2;fillColor=#fad7ac;" parent="1" vertex="1">
          <mxGeometry y="413" width="340" height="830" as="geometry" />
        </mxCell>
        <mxCell id="mXDbekLg4qPnqd0OjegT-2" value="" style="shape=mxgraph.cisco.routers.router;html=1;pointerEvents=1;dashed=0;fillColor=#036897;strokeColor=#ffffff;strokeWidth=2;verticalLabelPosition=bottom;verticalAlign=top;align=center;outlineConnect=0;" parent="1" vertex="1">
          <mxGeometry x="492.75" width="78" height="53" as="geometry" />
        </mxCell>
        <mxCell id="mXDbekLg4qPnqd0OjegT-3" value="" style="shape=mxgraph.cisco.security.firewall;html=1;pointerEvents=1;dashed=0;fillColor=#036897;strokeColor=#ffffff;strokeWidth=2;verticalLabelPosition=bottom;verticalAlign=top;align=center;outlineConnect=0;" parent="1" vertex="1">
          <mxGeometry x="103.5" y="-190" width="29" height="67" as="geometry" />
        </mxCell>
        <mxCell id="mXDbekLg4qPnqd0OjegT-5" value="" style="shape=mxgraph.cisco.storage.cloud;html=1;pointerEvents=1;dashed=0;fillColor=#036897;strokeColor=#ffffff;strokeWidth=2;verticalLabelPosition=bottom;verticalAlign=top;align=center;outlineConnect=0;" parent="1" vertex="1">
          <mxGeometry x="306" y="-160" width="186" height="106" as="geometry" />
        </mxCell>
        <mxCell id="mXDbekLg4qPnqd0OjegT-9" value="" style="edgeStyle=orthogonalEdgeStyle;rounded=0;orthogonalLoop=1;jettySize=auto;html=1;exitX=0.5;exitY=0;exitDx=0;exitDy=0;exitPerimeter=0;" parent="1" source="mXDbekLg4qPnqd0OjegT-10" target="mXDbekLg4qPnqd0OjegT-2" edge="1">
          <mxGeometry relative="1" as="geometry">
            <mxPoint x="594" y="82" as="sourcePoint" />
          </mxGeometry>
        </mxCell>
        <mxCell id="mXDbekLg4qPnqd0OjegT-11" value="" style="edgeStyle=orthogonalEdgeStyle;rounded=0;orthogonalLoop=1;jettySize=auto;html=1;" parent="1" source="mXDbekLg4qPnqd0OjegT-7" target="mXDbekLg4qPnqd0OjegT-10" edge="1">
          <mxGeometry relative="1" as="geometry" />
        </mxCell>
        <mxCell id="mXDbekLg4qPnqd0OjegT-252" style="edgeStyle=orthogonalEdgeStyle;rounded=0;orthogonalLoop=1;jettySize=auto;html=1;exitX=0.5;exitY=0.98;exitDx=0;exitDy=0;exitPerimeter=0;" parent="1" source="mXDbekLg4qPnqd0OjegT-7" target="kRnvDEAMwZP9P6292mLg-37" edge="1">
          <mxGeometry relative="1" as="geometry">
            <mxPoint x="532" y="320" as="targetPoint" />
          </mxGeometry>
        </mxCell>
        <mxCell id="mXDbekLg4qPnqd0OjegT-253" style="edgeStyle=orthogonalEdgeStyle;rounded=0;orthogonalLoop=1;jettySize=auto;html=1;exitX=0.5;exitY=0.98;exitDx=0;exitDy=0;exitPerimeter=0;" parent="1" source="mXDbekLg4qPnqd0OjegT-7" target="kRnvDEAMwZP9P6292mLg-38" edge="1">
          <mxGeometry relative="1" as="geometry">
            <mxPoint x="880.5" y="320" as="targetPoint" />
          </mxGeometry>
        </mxCell>
        <mxCell id="mXDbekLg4qPnqd0OjegT-254" style="edgeStyle=orthogonalEdgeStyle;rounded=0;orthogonalLoop=1;jettySize=auto;html=1;exitX=0.5;exitY=0.98;exitDx=0;exitDy=0;exitPerimeter=0;entryX=0.5;entryY=0;entryDx=0;entryDy=0;entryPerimeter=0;" parent="1" source="mXDbekLg4qPnqd0OjegT-7" target="yQttEKcs_ZQI97FA9JTA-85" edge="1">
          <mxGeometry relative="1" as="geometry">
            <mxPoint x="165" y="320" as="targetPoint" />
          </mxGeometry>
        </mxCell>
        <mxCell id="mXDbekLg4qPnqd0OjegT-255" style="edgeStyle=orthogonalEdgeStyle;rounded=0;orthogonalLoop=1;jettySize=auto;html=1;exitX=0.98;exitY=0.5;exitDx=0;exitDy=0;exitPerimeter=0;" parent="1" source="mXDbekLg4qPnqd0OjegT-7" target="mXDbekLg4qPnqd0OjegT-240" edge="1">
          <mxGeometry relative="1" as="geometry" />
        </mxCell>
        <mxCell id="mXDbekLg4qPnqd0OjegT-256" style="edgeStyle=orthogonalEdgeStyle;rounded=0;orthogonalLoop=1;jettySize=auto;html=1;exitX=0.98;exitY=0.5;exitDx=0;exitDy=0;exitPerimeter=0;entryX=0;entryY=0.75;entryDx=0;entryDy=0;" parent="1" source="mXDbekLg4qPnqd0OjegT-7" target="mXDbekLg4qPnqd0OjegT-108" edge="1">
          <mxGeometry relative="1" as="geometry" />
        </mxCell>
        <mxCell id="mXDbekLg4qPnqd0OjegT-7" value="" style="shape=mxgraph.cisco.switches.workgroup_switch;html=1;pointerEvents=1;dashed=0;fillColor=#036897;strokeColor=#ffffff;strokeWidth=2;verticalLabelPosition=bottom;verticalAlign=top;align=center;outlineConnect=0;" parent="1" vertex="1">
          <mxGeometry x="481.24999999999983" y="191" width="101" height="50" as="geometry" />
        </mxCell>
        <mxCell id="mXDbekLg4qPnqd0OjegT-8" value="" style="html=1;outlineConnect=0;fillColor=#CCCCCC;strokeColor=#6881B3;gradientColor=none;gradientDirection=north;strokeWidth=2;shape=mxgraph.networks.comm_link_edge;html=1;exitX=0.5;exitY=0;exitDx=0;exitDy=0;exitPerimeter=0;" parent="1" source="mXDbekLg4qPnqd0OjegT-2" target="mXDbekLg4qPnqd0OjegT-5" edge="1">
          <mxGeometry width="100" height="100" relative="1" as="geometry">
            <mxPoint x="223" y="60" as="sourcePoint" />
            <mxPoint x="323" y="-40" as="targetPoint" />
            <Array as="points">
              <mxPoint x="283" y="30" />
            </Array>
          </mxGeometry>
        </mxCell>
        <mxCell id="mXDbekLg4qPnqd0OjegT-10" value="" style="shape=mxgraph.cisco.switches.layer_3_switch;html=1;pointerEvents=1;dashed=0;fillColor=#036897;strokeColor=#ffffff;strokeWidth=2;verticalLabelPosition=bottom;verticalAlign=top;align=center;outlineConnect=0;" parent="1" vertex="1">
          <mxGeometry x="499.75000000000006" y="100" width="64" height="64" as="geometry" />
        </mxCell>
        <mxCell id="mXDbekLg4qPnqd0OjegT-69" value="172.17.80.250&lt;br&gt;" style="text;html=1;resizable=0;autosize=1;align=center;verticalAlign=middle;points=[];fillColor=none;strokeColor=none;rounded=0;" parent="1" vertex="1">
          <mxGeometry x="210" y="330" width="90" height="20" as="geometry" />
        </mxCell>
        <mxCell id="mXDbekLg4qPnqd0OjegT-71" value="172.17.80.219" style="text;html=1;resizable=0;autosize=1;align=center;verticalAlign=middle;points=[];fillColor=none;strokeColor=none;rounded=0;" parent="1" vertex="1">
          <mxGeometry x="576" y="330" width="90" height="20" as="geometry" />
        </mxCell>
        <mxCell id="mXDbekLg4qPnqd0OjegT-105" value="" style="group;fillColor=#76608a;strokeColor=#432D57;fontColor=#ffffff;" parent="1" vertex="1" connectable="0">
          <mxGeometry x="513.25" y="653" width="43" height="62" as="geometry" />
        </mxCell>
        <mxCell id="mXDbekLg4qPnqd0OjegT-106" value="" style="shape=mxgraph.cisco.servers.fileserver;html=1;pointerEvents=1;dashed=0;fillColor=#a0522d;strokeColor=#6D1F00;strokeWidth=2;verticalLabelPosition=bottom;verticalAlign=top;align=center;outlineConnect=0;fontColor=#ffffff;" parent="mXDbekLg4qPnqd0OjegT-105" vertex="1">
          <mxGeometry width="43" height="62" as="geometry" />
        </mxCell>
        <mxCell id="mXDbekLg4qPnqd0OjegT-107" value="" style="shape=mxgraph.cisco.storage.cloud;html=1;pointerEvents=1;dashed=0;fillColor=#a0522d;strokeColor=#6D1F00;strokeWidth=2;verticalLabelPosition=bottom;verticalAlign=top;align=center;outlineConnect=0;fontColor=#ffffff;" parent="mXDbekLg4qPnqd0OjegT-105" vertex="1">
          <mxGeometry x="5" y="24" width="38" height="25" as="geometry" />
        </mxCell>
        <mxCell id="mXDbekLg4qPnqd0OjegT-108" value="" style="image;html=1;image=img/lib/clip_art/networking/Switch_128x128.png" parent="1" vertex="1">
          <mxGeometry x="819" y="130" width="114" height="42" as="geometry" />
        </mxCell>
        <mxCell id="mXDbekLg4qPnqd0OjegT-109" value="172.17.80.252" style="text;html=1;resizable=0;autosize=1;align=center;verticalAlign=middle;points=[];fillColor=none;strokeColor=none;rounded=0;" parent="1" vertex="1">
          <mxGeometry x="923.5" y="130" width="90" height="20" as="geometry" />
        </mxCell>
        <mxCell id="mXDbekLg4qPnqd0OjegT-226" value="172.17.80.253" style="text;html=1;resizable=0;autosize=1;align=center;verticalAlign=middle;points=[];fillColor=none;strokeColor=none;rounded=0;" parent="1" vertex="1">
          <mxGeometry x="915" y="331" width="90" height="20" as="geometry" />
        </mxCell>
        <mxCell id="mXDbekLg4qPnqd0OjegT-240" value="" style="image;html=1;image=img/lib/clip_art/networking/Switch_128x128.png" parent="1" vertex="1">
          <mxGeometry x="823.5" y="220" width="114" height="42" as="geometry" />
        </mxCell>
        <mxCell id="mXDbekLg4qPnqd0OjegT-241" value="172.17.100.249" style="text;html=1;resizable=0;autosize=1;align=center;verticalAlign=middle;points=[];fillColor=none;strokeColor=none;rounded=0;" parent="1" vertex="1">
          <mxGeometry x="933" y="221" width="100" height="20" as="geometry" />
        </mxCell>
        <mxCell id="mXDbekLg4qPnqd0OjegT-16" value="172.17.80.236" style="text;html=1;resizable=0;autosize=1;align=center;verticalAlign=middle;points=[];rounded=0;shadow=1;fontStyle=0" parent="1" vertex="1">
          <mxGeometry x="69" y="440" width="90" height="20" as="geometry" />
        </mxCell>
        <mxCell id="mXDbekLg4qPnqd0OjegT-20" value="172.17.80.249" style="text;html=1;resizable=0;autosize=1;align=center;verticalAlign=middle;points=[];rounded=0;shadow=1;fontStyle=0" parent="1" vertex="1">
          <mxGeometry x="68.99999999999955" y="1153" width="90" height="20" as="geometry" />
        </mxCell>
        <mxCell id="mXDbekLg4qPnqd0OjegT-22" value="172.17.80.240" style="text;html=1;resizable=0;autosize=1;align=center;verticalAlign=middle;points=[];rounded=0;shadow=1;fontStyle=0" parent="1" vertex="1">
          <mxGeometry x="69" y="760" width="90" height="20" as="geometry" />
        </mxCell>
        <mxCell id="mXDbekLg4qPnqd0OjegT-27" value="172.17.80.243" style="text;html=1;resizable=0;autosize=1;align=center;verticalAlign=middle;points=[];rounded=0;shadow=1;fontStyle=0" parent="1" vertex="1">
          <mxGeometry x="69" y="997" width="90" height="20" as="geometry" />
        </mxCell>
        <mxCell id="mXDbekLg4qPnqd0OjegT-28" value="172.17.80.248" style="text;html=1;resizable=0;autosize=1;align=center;verticalAlign=middle;points=[];rounded=0;shadow=1;fontStyle=0" parent="1" vertex="1">
          <mxGeometry x="68.99999999999957" y="1076" width="90" height="20" as="geometry" />
        </mxCell>
        <mxCell id="mXDbekLg4qPnqd0OjegT-41" value="172.17.80.210" style="text;html=1;resizable=0;autosize=1;align=center;verticalAlign=middle;points=[];rounded=0;shadow=1;fontStyle=0" parent="1" vertex="1">
          <mxGeometry x="181" y="448" width="90" height="20" as="geometry" />
        </mxCell>
        <mxCell id="mXDbekLg4qPnqd0OjegT-42" value="172.17.80.211" style="text;html=1;resizable=0;autosize=1;align=center;verticalAlign=middle;points=[];rounded=0;shadow=1;fontStyle=0" parent="1" vertex="1">
          <mxGeometry x="181" y="533" width="90" height="20" as="geometry" />
        </mxCell>
        <mxCell id="mXDbekLg4qPnqd0OjegT-43" value="172.17.80.212" style="text;html=1;resizable=0;autosize=1;align=center;verticalAlign=middle;points=[];rounded=0;shadow=1;fontStyle=0" parent="1" vertex="1">
          <mxGeometry x="181" y="613" width="90" height="20" as="geometry" />
        </mxCell>
        <mxCell id="mXDbekLg4qPnqd0OjegT-47" value="172.17.80.213" style="text;html=1;resizable=0;autosize=1;align=center;verticalAlign=middle;points=[];rounded=0;shadow=1;fontStyle=0" parent="1" vertex="1">
          <mxGeometry x="180.99999999999977" y="696" width="90" height="20" as="geometry" />
        </mxCell>
        <mxCell id="mXDbekLg4qPnqd0OjegT-48" value="172.17.80.214" style="text;html=1;resizable=0;autosize=1;align=center;verticalAlign=middle;points=[];rounded=0;shadow=1;fontStyle=0" parent="1" vertex="1">
          <mxGeometry x="180.99999999999977" y="765" width="90" height="20" as="geometry" />
        </mxCell>
        <mxCell id="mXDbekLg4qPnqd0OjegT-49" value="172.17.80.215" style="text;html=1;resizable=0;autosize=1;align=center;verticalAlign=middle;points=[];rounded=0;shadow=1;fontStyle=0" parent="1" vertex="1">
          <mxGeometry x="181" y="853" width="90" height="20" as="geometry" />
        </mxCell>
        <mxCell id="mXDbekLg4qPnqd0OjegT-50" value="172.17.80.216" style="text;html=1;resizable=0;autosize=1;align=center;verticalAlign=middle;points=[];rounded=0;shadow=1;fontStyle=0" parent="1" vertex="1">
          <mxGeometry x="180.99999999999977" y="931" width="90" height="20" as="geometry" />
        </mxCell>
        <mxCell id="mXDbekLg4qPnqd0OjegT-51" value="172.17.80.217" style="text;html=1;resizable=0;autosize=1;align=center;verticalAlign=middle;points=[];rounded=0;shadow=1;fontStyle=0" parent="1" vertex="1">
          <mxGeometry x="181" y="1007" width="90" height="20" as="geometry" />
        </mxCell>
        <mxCell id="kRnvDEAMwZP9P6292mLg-20" style="edgeStyle=orthogonalEdgeStyle;rounded=0;orthogonalLoop=1;jettySize=auto;html=1;exitX=1;exitY=0.5;exitDx=0;exitDy=0;" edge="1" parent="1" source="mXDbekLg4qPnqd0OjegT-33" target="yQttEKcs_ZQI97FA9JTA-85">
          <mxGeometry relative="1" as="geometry" />
        </mxCell>
        <mxCell id="mXDbekLg4qPnqd0OjegT-33" value="" style="image;html=1;image=img/lib/clip_art/computers/Server_Tower_128x128.png" parent="1" vertex="1">
          <mxGeometry x="13" y="514" width="43" height="62" as="geometry" />
        </mxCell>
        <mxCell id="yQttEKcs_ZQI97FA9JTA-4" value="" style="group" parent="1" vertex="1" connectable="0">
          <mxGeometry x="13" y="675" width="43" height="62" as="geometry" />
        </mxCell>
        <mxCell id="yQttEKcs_ZQI97FA9JTA-5" value="" style="image;html=1;image=img/lib/clip_art/computers/Server_Tower_128x128.png" parent="yQttEKcs_ZQI97FA9JTA-4" vertex="1">
          <mxGeometry x="-5" width="43" height="62" as="geometry" />
        </mxCell>
        <mxCell id="kRnvDEAMwZP9P6292mLg-22" style="edgeStyle=orthogonalEdgeStyle;rounded=0;orthogonalLoop=1;jettySize=auto;html=1;exitX=1;exitY=0.5;exitDx=0;exitDy=0;" edge="1" parent="1" source="yQttEKcs_ZQI97FA9JTA-8" target="yQttEKcs_ZQI97FA9JTA-85">
          <mxGeometry relative="1" as="geometry" />
        </mxCell>
        <mxCell id="yQttEKcs_ZQI97FA9JTA-8" value="" style="image;html=1;image=img/lib/clip_art/computers/Server_Tower_128x128.png" parent="1" vertex="1">
          <mxGeometry x="13" y="593" width="43" height="62" as="geometry" />
        </mxCell>
        <mxCell id="kRnvDEAMwZP9P6292mLg-26" style="edgeStyle=orthogonalEdgeStyle;rounded=0;orthogonalLoop=1;jettySize=auto;html=1;exitX=1;exitY=0.5;exitDx=0;exitDy=0;" edge="1" parent="1" source="yQttEKcs_ZQI97FA9JTA-9" target="yQttEKcs_ZQI97FA9JTA-85">
          <mxGeometry relative="1" as="geometry" />
        </mxCell>
        <mxCell id="yQttEKcs_ZQI97FA9JTA-9" value="" style="image;html=1;image=img/lib/clip_art/computers/Server_Tower_128x128.png" parent="1" vertex="1">
          <mxGeometry x="13" y="751" width="43" height="62" as="geometry" />
        </mxCell>
        <mxCell id="kRnvDEAMwZP9P6292mLg-28" style="edgeStyle=orthogonalEdgeStyle;rounded=0;orthogonalLoop=1;jettySize=auto;html=1;exitX=1;exitY=0.5;exitDx=0;exitDy=0;" edge="1" parent="1" source="yQttEKcs_ZQI97FA9JTA-10" target="yQttEKcs_ZQI97FA9JTA-85">
          <mxGeometry relative="1" as="geometry" />
        </mxCell>
        <mxCell id="yQttEKcs_ZQI97FA9JTA-10" value="" style="image;html=1;image=img/lib/clip_art/computers/Server_Tower_128x128.png" parent="1" vertex="1">
          <mxGeometry x="13" y="832" width="43" height="62" as="geometry" />
        </mxCell>
        <mxCell id="yQttEKcs_ZQI97FA9JTA-11" value="" style="group" parent="1" vertex="1" connectable="0">
          <mxGeometry x="13" y="990" width="43" height="62" as="geometry" />
        </mxCell>
        <mxCell id="yQttEKcs_ZQI97FA9JTA-12" value="" style="image;html=1;image=img/lib/clip_art/computers/Server_Tower_128x128.png" parent="yQttEKcs_ZQI97FA9JTA-11" vertex="1">
          <mxGeometry x="-5" width="43" height="62" as="geometry" />
        </mxCell>
        <mxCell id="kRnvDEAMwZP9P6292mLg-30" style="edgeStyle=orthogonalEdgeStyle;rounded=0;orthogonalLoop=1;jettySize=auto;html=1;exitX=1;exitY=0.5;exitDx=0;exitDy=0;" edge="1" parent="1" source="yQttEKcs_ZQI97FA9JTA-13" target="yQttEKcs_ZQI97FA9JTA-85">
          <mxGeometry relative="1" as="geometry" />
        </mxCell>
        <mxCell id="yQttEKcs_ZQI97FA9JTA-13" value="" style="image;html=1;image=img/lib/clip_art/computers/Server_Tower_128x128.png" parent="1" vertex="1">
          <mxGeometry x="13" y="911" width="43" height="62" as="geometry" />
        </mxCell>
        <mxCell id="kRnvDEAMwZP9P6292mLg-34" style="edgeStyle=orthogonalEdgeStyle;rounded=0;orthogonalLoop=1;jettySize=auto;html=1;exitX=1;exitY=0.5;exitDx=0;exitDy=0;" edge="1" parent="1" source="yQttEKcs_ZQI97FA9JTA-16" target="yQttEKcs_ZQI97FA9JTA-85">
          <mxGeometry relative="1" as="geometry" />
        </mxCell>
        <mxCell id="yQttEKcs_ZQI97FA9JTA-16" value="" style="image;html=1;image=img/lib/clip_art/computers/Server_Tower_128x128.png" parent="1" vertex="1">
          <mxGeometry x="13" y="1066" width="43" height="62" as="geometry" />
        </mxCell>
        <mxCell id="yQttEKcs_ZQI97FA9JTA-37" value="172.17.80.239" style="text;html=1;resizable=0;autosize=1;align=center;verticalAlign=middle;points=[];rounded=0;shadow=1;fontStyle=0" parent="1" vertex="1">
          <mxGeometry x="67.99999999999957" y="675" width="90" height="20" as="geometry" />
        </mxCell>
        <mxCell id="yQttEKcs_ZQI97FA9JTA-38" value="172.17.80.238" style="text;html=1;resizable=0;autosize=1;align=center;verticalAlign=middle;points=[];rounded=0;shadow=1;fontStyle=0" parent="1" vertex="1">
          <mxGeometry x="67.99999999999955" y="597" width="90" height="20" as="geometry" />
        </mxCell>
        <mxCell id="yQttEKcs_ZQI97FA9JTA-39" value="172.17.80.241" style="text;html=1;resizable=0;autosize=1;align=center;verticalAlign=middle;points=[];rounded=0;shadow=1;fontStyle=0" parent="1" vertex="1">
          <mxGeometry x="68.99999999999955" y="833" width="90" height="20" as="geometry" />
        </mxCell>
        <mxCell id="yQttEKcs_ZQI97FA9JTA-40" value="172.17.80.242" style="text;html=1;resizable=0;autosize=1;align=center;verticalAlign=middle;points=[];rounded=0;shadow=1;fontStyle=0" parent="1" vertex="1">
          <mxGeometry x="68.99999999999955" y="918" width="90" height="20" as="geometry" />
        </mxCell>
        <mxCell id="kRnvDEAMwZP9P6292mLg-18" style="edgeStyle=orthogonalEdgeStyle;rounded=0;orthogonalLoop=1;jettySize=auto;html=1;exitX=1;exitY=0.5;exitDx=0;exitDy=0;" edge="1" parent="1" source="yQttEKcs_ZQI97FA9JTA-42" target="yQttEKcs_ZQI97FA9JTA-85">
          <mxGeometry relative="1" as="geometry" />
        </mxCell>
        <mxCell id="yQttEKcs_ZQI97FA9JTA-42" value="" style="image;html=1;image=img/lib/clip_art/computers/Server_Tower_128x128.png" parent="1" vertex="1">
          <mxGeometry x="13" y="433" width="43" height="62" as="geometry" />
        </mxCell>
        <mxCell id="kRnvDEAMwZP9P6292mLg-21" style="edgeStyle=orthogonalEdgeStyle;rounded=0;orthogonalLoop=1;jettySize=auto;html=1;exitX=0;exitY=0.5;exitDx=0;exitDy=0;" edge="1" parent="1" source="yQttEKcs_ZQI97FA9JTA-43" target="yQttEKcs_ZQI97FA9JTA-85">
          <mxGeometry relative="1" as="geometry" />
        </mxCell>
        <mxCell id="yQttEKcs_ZQI97FA9JTA-43" value="" style="image;html=1;image=img/lib/clip_art/computers/Server_Tower_128x128.png" parent="1" vertex="1">
          <mxGeometry x="288" y="528" width="43" height="62" as="geometry" />
        </mxCell>
        <mxCell id="yQttEKcs_ZQI97FA9JTA-44" value="" style="group" parent="1" vertex="1" connectable="0">
          <mxGeometry x="288" y="689" width="43" height="62" as="geometry" />
        </mxCell>
        <mxCell id="yQttEKcs_ZQI97FA9JTA-45" value="" style="image;html=1;image=img/lib/clip_art/computers/Server_Tower_128x128.png" parent="yQttEKcs_ZQI97FA9JTA-44" vertex="1">
          <mxGeometry width="43" height="62" as="geometry" />
        </mxCell>
        <mxCell id="kRnvDEAMwZP9P6292mLg-23" style="edgeStyle=orthogonalEdgeStyle;rounded=0;orthogonalLoop=1;jettySize=auto;html=1;exitX=0;exitY=0.5;exitDx=0;exitDy=0;" edge="1" parent="1" source="yQttEKcs_ZQI97FA9JTA-46" target="yQttEKcs_ZQI97FA9JTA-85">
          <mxGeometry relative="1" as="geometry" />
        </mxCell>
        <mxCell id="yQttEKcs_ZQI97FA9JTA-46" value="" style="image;html=1;image=img/lib/clip_art/computers/Server_Tower_128x128.png" parent="1" vertex="1">
          <mxGeometry x="288" y="607" width="43" height="62" as="geometry" />
        </mxCell>
        <mxCell id="kRnvDEAMwZP9P6292mLg-27" style="edgeStyle=orthogonalEdgeStyle;rounded=0;orthogonalLoop=1;jettySize=auto;html=1;exitX=0;exitY=0.5;exitDx=0;exitDy=0;" edge="1" parent="1" source="yQttEKcs_ZQI97FA9JTA-47" target="yQttEKcs_ZQI97FA9JTA-85">
          <mxGeometry relative="1" as="geometry" />
        </mxCell>
        <mxCell id="yQttEKcs_ZQI97FA9JTA-47" value="" style="image;html=1;image=img/lib/clip_art/computers/Server_Tower_128x128.png" parent="1" vertex="1">
          <mxGeometry x="288" y="765" width="43" height="62" as="geometry" />
        </mxCell>
        <mxCell id="kRnvDEAMwZP9P6292mLg-29" style="edgeStyle=orthogonalEdgeStyle;rounded=0;orthogonalLoop=1;jettySize=auto;html=1;exitX=0;exitY=0.5;exitDx=0;exitDy=0;" edge="1" parent="1" source="yQttEKcs_ZQI97FA9JTA-48" target="yQttEKcs_ZQI97FA9JTA-85">
          <mxGeometry relative="1" as="geometry" />
        </mxCell>
        <mxCell id="yQttEKcs_ZQI97FA9JTA-48" value="" style="image;html=1;image=img/lib/clip_art/computers/Server_Tower_128x128.png" parent="1" vertex="1">
          <mxGeometry x="288" y="846" width="43" height="62" as="geometry" />
        </mxCell>
        <mxCell id="yQttEKcs_ZQI97FA9JTA-49" value="" style="group" parent="1" vertex="1" connectable="0">
          <mxGeometry x="288" y="1004" width="43" height="62" as="geometry" />
        </mxCell>
        <mxCell id="yQttEKcs_ZQI97FA9JTA-50" value="" style="image;html=1;image=img/lib/clip_art/computers/Server_Tower_128x128.png" parent="yQttEKcs_ZQI97FA9JTA-49" vertex="1">
          <mxGeometry width="43" height="62" as="geometry" />
        </mxCell>
        <mxCell id="kRnvDEAMwZP9P6292mLg-31" style="edgeStyle=orthogonalEdgeStyle;rounded=0;orthogonalLoop=1;jettySize=auto;html=1;exitX=0;exitY=0.5;exitDx=0;exitDy=0;" edge="1" parent="1" source="yQttEKcs_ZQI97FA9JTA-51" target="yQttEKcs_ZQI97FA9JTA-85">
          <mxGeometry relative="1" as="geometry" />
        </mxCell>
        <mxCell id="yQttEKcs_ZQI97FA9JTA-51" value="" style="image;html=1;image=img/lib/clip_art/computers/Server_Tower_128x128.png" parent="1" vertex="1">
          <mxGeometry x="288" y="925" width="43" height="62" as="geometry" />
        </mxCell>
        <mxCell id="kRnvDEAMwZP9P6292mLg-19" style="edgeStyle=orthogonalEdgeStyle;rounded=0;orthogonalLoop=1;jettySize=auto;html=1;exitX=0;exitY=0.5;exitDx=0;exitDy=0;" edge="1" parent="1" source="yQttEKcs_ZQI97FA9JTA-52" target="yQttEKcs_ZQI97FA9JTA-85">
          <mxGeometry relative="1" as="geometry" />
        </mxCell>
        <mxCell id="yQttEKcs_ZQI97FA9JTA-52" value="" style="image;html=1;image=img/lib/clip_art/computers/Server_Tower_128x128.png" parent="1" vertex="1">
          <mxGeometry x="288" y="447" width="43" height="62" as="geometry" />
        </mxCell>
        <mxCell id="kRnvDEAMwZP9P6292mLg-41" style="edgeStyle=orthogonalEdgeStyle;rounded=0;orthogonalLoop=1;jettySize=auto;html=1;exitX=1;exitY=0.5;exitDx=0;exitDy=0;" edge="1" parent="1" source="yQttEKcs_ZQI97FA9JTA-53" target="kRnvDEAMwZP9P6292mLg-37">
          <mxGeometry relative="1" as="geometry" />
        </mxCell>
        <mxCell id="yQttEKcs_ZQI97FA9JTA-53" value="" style="image;html=1;image=img/lib/clip_art/computers/Server_Tower_128x128.png" parent="1" vertex="1">
          <mxGeometry x="393" y="515" width="43" height="62" as="geometry" />
        </mxCell>
        <mxCell id="kRnvDEAMwZP9P6292mLg-43" style="edgeStyle=orthogonalEdgeStyle;rounded=0;orthogonalLoop=1;jettySize=auto;html=1;exitX=1;exitY=0.5;exitDx=0;exitDy=0;" edge="1" parent="1" source="yQttEKcs_ZQI97FA9JTA-54" target="kRnvDEAMwZP9P6292mLg-37">
          <mxGeometry relative="1" as="geometry" />
        </mxCell>
        <mxCell id="yQttEKcs_ZQI97FA9JTA-54" value="" style="image;html=1;image=img/lib/clip_art/computers/Server_Tower_128x128.png" parent="1" vertex="1">
          <mxGeometry x="393" y="594" width="43" height="62" as="geometry" />
        </mxCell>
        <mxCell id="kRnvDEAMwZP9P6292mLg-39" style="edgeStyle=orthogonalEdgeStyle;rounded=0;orthogonalLoop=1;jettySize=auto;html=1;exitX=1;exitY=0.5;exitDx=0;exitDy=0;" edge="1" parent="1" source="yQttEKcs_ZQI97FA9JTA-55" target="kRnvDEAMwZP9P6292mLg-37">
          <mxGeometry relative="1" as="geometry" />
        </mxCell>
        <mxCell id="yQttEKcs_ZQI97FA9JTA-55" value="" style="image;html=1;image=img/lib/clip_art/computers/Server_Tower_128x128.png" parent="1" vertex="1">
          <mxGeometry x="393" y="434" width="43" height="62" as="geometry" />
        </mxCell>
        <mxCell id="kRnvDEAMwZP9P6292mLg-42" style="edgeStyle=orthogonalEdgeStyle;rounded=0;orthogonalLoop=1;jettySize=auto;html=1;exitX=0;exitY=0.5;exitDx=0;exitDy=0;" edge="1" parent="1" source="yQttEKcs_ZQI97FA9JTA-56" target="kRnvDEAMwZP9P6292mLg-37">
          <mxGeometry relative="1" as="geometry" />
        </mxCell>
        <mxCell id="yQttEKcs_ZQI97FA9JTA-56" value="" style="image;html=1;image=img/lib/clip_art/computers/Server_Tower_128x128.png" parent="1" vertex="1">
          <mxGeometry x="630.5" y="516" width="43" height="62" as="geometry" />
        </mxCell>
        <mxCell id="kRnvDEAMwZP9P6292mLg-44" style="edgeStyle=orthogonalEdgeStyle;rounded=0;orthogonalLoop=1;jettySize=auto;html=1;exitX=0;exitY=0.5;exitDx=0;exitDy=0;" edge="1" parent="1" source="yQttEKcs_ZQI97FA9JTA-57" target="kRnvDEAMwZP9P6292mLg-37">
          <mxGeometry relative="1" as="geometry" />
        </mxCell>
        <mxCell id="yQttEKcs_ZQI97FA9JTA-57" value="" style="image;html=1;image=img/lib/clip_art/computers/Server_Tower_128x128.png" parent="1" vertex="1">
          <mxGeometry x="630.5" y="595" width="43" height="62" as="geometry" />
        </mxCell>
        <mxCell id="kRnvDEAMwZP9P6292mLg-40" style="edgeStyle=orthogonalEdgeStyle;rounded=0;orthogonalLoop=1;jettySize=auto;html=1;exitX=0;exitY=0.5;exitDx=0;exitDy=0;" edge="1" parent="1" source="yQttEKcs_ZQI97FA9JTA-58" target="kRnvDEAMwZP9P6292mLg-37">
          <mxGeometry relative="1" as="geometry" />
        </mxCell>
        <mxCell id="yQttEKcs_ZQI97FA9JTA-58" value="" style="image;html=1;image=img/lib/clip_art/computers/Server_Tower_128x128.png" parent="1" vertex="1">
          <mxGeometry x="630.5" y="435" width="43" height="62" as="geometry" />
        </mxCell>
        <mxCell id="kRnvDEAMwZP9P6292mLg-45" style="edgeStyle=orthogonalEdgeStyle;rounded=0;orthogonalLoop=1;jettySize=auto;html=1;exitX=0.5;exitY=0;exitDx=0;exitDy=0;" edge="1" parent="1" source="yQttEKcs_ZQI97FA9JTA-59" target="kRnvDEAMwZP9P6292mLg-38">
          <mxGeometry relative="1" as="geometry" />
        </mxCell>
        <mxCell id="yQttEKcs_ZQI97FA9JTA-59" value="" style="image;html=1;image=img/lib/clip_art/computers/Server_Tower_128x128.png" parent="1" vertex="1">
          <mxGeometry x="753.75" y="479" width="43" height="62" as="geometry" />
        </mxCell>
        <mxCell id="kRnvDEAMwZP9P6292mLg-46" style="edgeStyle=orthogonalEdgeStyle;rounded=0;orthogonalLoop=1;jettySize=auto;html=1;exitX=0.5;exitY=0;exitDx=0;exitDy=0;" edge="1" parent="1" source="yQttEKcs_ZQI97FA9JTA-60" target="kRnvDEAMwZP9P6292mLg-38">
          <mxGeometry relative="1" as="geometry" />
        </mxCell>
        <mxCell id="yQttEKcs_ZQI97FA9JTA-60" value="" style="image;html=1;image=img/lib/clip_art/computers/Server_Tower_128x128.png" parent="1" vertex="1">
          <mxGeometry x="857" y="479" width="43" height="62" as="geometry" />
        </mxCell>
        <mxCell id="kRnvDEAMwZP9P6292mLg-47" style="edgeStyle=orthogonalEdgeStyle;rounded=0;orthogonalLoop=1;jettySize=auto;html=1;exitX=0.5;exitY=0;exitDx=0;exitDy=0;" edge="1" parent="1" source="yQttEKcs_ZQI97FA9JTA-61" target="kRnvDEAMwZP9P6292mLg-38">
          <mxGeometry relative="1" as="geometry" />
        </mxCell>
        <mxCell id="yQttEKcs_ZQI97FA9JTA-61" value="" style="image;html=1;image=img/lib/clip_art/computers/Server_Tower_128x128.png" parent="1" vertex="1">
          <mxGeometry x="980" y="479" width="43" height="62" as="geometry" />
        </mxCell>
        <mxCell id="kRnvDEAMwZP9P6292mLg-36" style="edgeStyle=orthogonalEdgeStyle;rounded=0;orthogonalLoop=1;jettySize=auto;html=1;exitX=1;exitY=0.5;exitDx=0;exitDy=0;" edge="1" parent="1" source="yQttEKcs_ZQI97FA9JTA-15" target="yQttEKcs_ZQI97FA9JTA-85">
          <mxGeometry relative="1" as="geometry" />
        </mxCell>
        <mxCell id="yQttEKcs_ZQI97FA9JTA-15" value="" style="image;html=1;image=img/lib/clip_art/computers/Server_Tower_128x128.png" parent="1" vertex="1">
          <mxGeometry x="13" y="1144" width="43" height="62" as="geometry" />
        </mxCell>
        <mxCell id="yQttEKcs_ZQI97FA9JTA-63" value="172.17.80.218" style="text;html=1;resizable=0;autosize=1;align=center;verticalAlign=middle;points=[];rounded=0;shadow=1;fontStyle=0" parent="1" vertex="1">
          <mxGeometry x="181" y="1099" width="90" height="20" as="geometry" />
        </mxCell>
        <mxCell id="yQttEKcs_ZQI97FA9JTA-64" value="" style="group" parent="1" vertex="1" connectable="0">
          <mxGeometry x="288" y="1096" width="43" height="62" as="geometry" />
        </mxCell>
        <mxCell id="yQttEKcs_ZQI97FA9JTA-65" value="" style="image;html=1;image=img/lib/clip_art/computers/Server_Tower_128x128.png" parent="yQttEKcs_ZQI97FA9JTA-64" vertex="1">
          <mxGeometry width="43" height="62" as="geometry" />
        </mxCell>
        <mxCell id="yQttEKcs_ZQI97FA9JTA-68" value="172.17.80.237" style="text;html=1;resizable=0;autosize=1;align=center;verticalAlign=middle;points=[];rounded=0;shadow=1;fontStyle=0" parent="1" vertex="1">
          <mxGeometry x="69" y="520" width="90" height="20" as="geometry" />
        </mxCell>
        <mxCell id="yQttEKcs_ZQI97FA9JTA-70" value="172.17.80.158" style="text;html=1;resizable=0;autosize=1;align=center;verticalAlign=middle;points=[];rounded=0;shadow=1;fontStyle=0" parent="1" vertex="1">
          <mxGeometry x="536.5" y="444" width="90" height="20" as="geometry" />
        </mxCell>
        <mxCell id="yQttEKcs_ZQI97FA9JTA-71" value="172.17.80.159" style="text;html=1;resizable=0;autosize=1;align=center;verticalAlign=middle;points=[];rounded=0;shadow=1;fontStyle=0" parent="1" vertex="1">
          <mxGeometry x="536.5" y="521" width="90" height="20" as="geometry" />
        </mxCell>
        <mxCell id="yQttEKcs_ZQI97FA9JTA-72" value="172.17.80.160" style="text;html=1;resizable=0;autosize=1;align=center;verticalAlign=middle;points=[];rounded=0;shadow=1;fontStyle=0" parent="1" vertex="1">
          <mxGeometry x="536.5" y="602" width="90" height="20" as="geometry" />
        </mxCell>
        <mxCell id="yQttEKcs_ZQI97FA9JTA-73" value="172.17.80.155" style="text;html=1;resizable=0;autosize=1;align=center;verticalAlign=middle;points=[];rounded=0;shadow=1;fontStyle=0" parent="1" vertex="1">
          <mxGeometry x="439.49999999999955" y="442" width="90" height="20" as="geometry" />
        </mxCell>
        <mxCell id="yQttEKcs_ZQI97FA9JTA-74" value="172.17.80.156" style="text;html=1;resizable=0;autosize=1;align=center;verticalAlign=middle;points=[];rounded=0;shadow=1;fontStyle=0" parent="1" vertex="1">
          <mxGeometry x="439.49999999999955" y="520" width="90" height="20" as="geometry" />
        </mxCell>
        <mxCell id="yQttEKcs_ZQI97FA9JTA-75" value="172.17.80.157" style="text;html=1;resizable=0;autosize=1;align=center;verticalAlign=middle;points=[];rounded=0;shadow=1;fontStyle=0" parent="1" vertex="1">
          <mxGeometry x="439.49999999999955" y="603" width="90" height="20" as="geometry" />
        </mxCell>
        <mxCell id="yQttEKcs_ZQI97FA9JTA-82" value="172.17.80.152" style="text;html=1;resizable=0;autosize=1;align=center;verticalAlign=middle;points=[];rounded=0;shadow=1;fontStyle=0" parent="1" vertex="1">
          <mxGeometry x="736.9999999999995" y="541" width="90" height="20" as="geometry" />
        </mxCell>
        <mxCell id="yQttEKcs_ZQI97FA9JTA-83" value="172.17.80.153" style="text;html=1;resizable=0;autosize=1;align=center;verticalAlign=middle;points=[];rounded=0;shadow=1;fontStyle=0" parent="1" vertex="1">
          <mxGeometry x="833.4999999999995" y="541" width="90" height="20" as="geometry" />
        </mxCell>
        <mxCell id="yQttEKcs_ZQI97FA9JTA-84" value="172.17.80.154" style="text;html=1;resizable=0;autosize=1;align=center;verticalAlign=middle;points=[];rounded=0;shadow=1;fontStyle=0" parent="1" vertex="1">
          <mxGeometry x="932.9999999999995" y="540" width="90" height="20" as="geometry" />
        </mxCell>
        <mxCell id="yQttEKcs_ZQI97FA9JTA-85" value="" style="shape=mxgraph.cisco.servers.standard_host;html=1;pointerEvents=1;dashed=0;fillColor=#036897;strokeColor=#ffffff;strokeWidth=2;verticalLabelPosition=bottom;verticalAlign=top;align=center;outlineConnect=0;" parent="1" vertex="1">
          <mxGeometry x="130" y="320" width="72" height="80" as="geometry" />
        </mxCell>
        <mxCell id="kRnvDEAMwZP9P6292mLg-2" value="" style="verticalLabelPosition=bottom;aspect=fixed;html=1;verticalAlign=top;strokeColor=none;align=center;outlineConnect=0;shape=mxgraph.citrix.tower_server;" vertex="1" parent="1">
          <mxGeometry x="-63.5" y="-11" width="65" height="85" as="geometry" />
        </mxCell>
        <mxCell id="kRnvDEAMwZP9P6292mLg-4" value="" style="shape=mxgraph.cisco.servers.standard_host;html=1;pointerEvents=1;dashed=0;fillColor=#036897;strokeColor=#ffffff;strokeWidth=2;verticalLabelPosition=bottom;verticalAlign=top;align=center;outlineConnect=0;" vertex="1" parent="1">
          <mxGeometry x="49.5" y="-60" width="43" height="62" as="geometry" />
        </mxCell>
        <mxCell id="kRnvDEAMwZP9P6292mLg-24" style="edgeStyle=orthogonalEdgeStyle;rounded=0;orthogonalLoop=1;jettySize=auto;html=1;exitX=1;exitY=0.5;exitDx=0;exitDy=0;" edge="1" parent="1" source="yQttEKcs_ZQI97FA9JTA-5" target="yQttEKcs_ZQI97FA9JTA-85">
          <mxGeometry relative="1" as="geometry" />
        </mxCell>
        <mxCell id="kRnvDEAMwZP9P6292mLg-25" style="edgeStyle=orthogonalEdgeStyle;rounded=0;orthogonalLoop=1;jettySize=auto;html=1;exitX=0;exitY=0.5;exitDx=0;exitDy=0;" edge="1" parent="1" source="yQttEKcs_ZQI97FA9JTA-45" target="yQttEKcs_ZQI97FA9JTA-85">
          <mxGeometry relative="1" as="geometry" />
        </mxCell>
        <mxCell id="kRnvDEAMwZP9P6292mLg-32" style="edgeStyle=orthogonalEdgeStyle;rounded=0;orthogonalLoop=1;jettySize=auto;html=1;exitX=1;exitY=0.5;exitDx=0;exitDy=0;" edge="1" parent="1" source="yQttEKcs_ZQI97FA9JTA-12" target="yQttEKcs_ZQI97FA9JTA-85">
          <mxGeometry relative="1" as="geometry" />
        </mxCell>
        <mxCell id="kRnvDEAMwZP9P6292mLg-33" style="edgeStyle=orthogonalEdgeStyle;rounded=0;orthogonalLoop=1;jettySize=auto;html=1;exitX=0;exitY=0.5;exitDx=0;exitDy=0;" edge="1" parent="1" source="yQttEKcs_ZQI97FA9JTA-50" target="yQttEKcs_ZQI97FA9JTA-85">
          <mxGeometry relative="1" as="geometry" />
        </mxCell>
        <mxCell id="kRnvDEAMwZP9P6292mLg-35" style="edgeStyle=orthogonalEdgeStyle;rounded=0;orthogonalLoop=1;jettySize=auto;html=1;exitX=0;exitY=0.5;exitDx=0;exitDy=0;" edge="1" parent="1" source="yQttEKcs_ZQI97FA9JTA-65" target="yQttEKcs_ZQI97FA9JTA-85">
          <mxGeometry relative="1" as="geometry" />
        </mxCell>
        <mxCell id="kRnvDEAMwZP9P6292mLg-37" value="" style="shape=mxgraph.cisco.servers.standard_host;html=1;pointerEvents=1;dashed=0;fillColor=#036897;strokeColor=#ffffff;strokeWidth=2;verticalLabelPosition=bottom;verticalAlign=top;align=center;outlineConnect=0;" vertex="1" parent="1">
          <mxGeometry x="492.75" y="320" width="72" height="80" as="geometry" />
        </mxCell>
        <mxCell id="kRnvDEAMwZP9P6292mLg-38" value="" style="shape=mxgraph.cisco.servers.standard_host;html=1;pointerEvents=1;dashed=0;fillColor=#036897;strokeColor=#ffffff;strokeWidth=2;verticalLabelPosition=bottom;verticalAlign=top;align=center;outlineConnect=0;" vertex="1" parent="1">
          <mxGeometry x="842.5" y="320" width="72" height="80" as="geometry" />
        </mxCell>
      </root>
    </mxGraphModel>
  </diagram>
</mxfile>
